<svg id="mermaidSvgChart" width="100%" xmlns="http://www.w3.org/2000/svg" xmlns:xlink="http://www.w3.org/1999/xlink" height="523" style="max-width: 2508.875px;" viewBox="-20 -20 2508.875 523"><style>#mermaidSvgChart{font-family:"trebuchet ms",verdana,arial,sans-serif;font-size:16px;fill:#000000;}#mermaidSvgChart .error-icon{fill:#552222;}#mermaidSvgChart .error-text{fill:#552222;stroke:#552222;}#mermaidSvgChart .edge-thickness-normal{stroke-width:2px;}#mermaidSvgChart .edge-thickness-thick{stroke-width:3.5px;}#mermaidSvgChart .edge-pattern-solid{stroke-dasharray:0;}#mermaidSvgChart .edge-pattern-dashed{stroke-dasharray:3;}#mermaidSvgChart .edge-pattern-dotted{stroke-dasharray:2;}#mermaidSvgChart .marker{fill:#666;stroke:#666;}#mermaidSvgChart .marker.cross{stroke:#666;}#mermaidSvgChart svg{font-family:"trebuchet ms",verdana,arial,sans-serif;font-size:16px;}#mermaidSvgChart g.classGroup text{fill:#999;fill:#111111;stroke:none;font-family:"trebuchet ms",verdana,arial,sans-serif;font-size:10px;}#mermaidSvgChart g.classGroup text .title{font-weight:bolder;}#mermaidSvgChart .classTitle{font-weight:bolder;}#mermaidSvgChart .node rect,#mermaidSvgChart .node circle,#mermaidSvgChart .node ellipse,#mermaidSvgChart .node polygon,#mermaidSvgChart .node path{fill:#eee;stroke:#999;stroke-width:1px;}#mermaidSvgChart .divider{stroke:#999;stroke:1;}#mermaidSvgChart g.clickable{cursor:pointer;}#mermaidSvgChart g.classGroup rect{fill:#eee;stroke:#999;}#mermaidSvgChart g.classGroup line{stroke:#999;stroke-width:1;}#mermaidSvgChart .classLabel .box{stroke:none;stroke-width:0;fill:#eee;opacity:0.5;}#mermaidSvgChart .classLabel .label{fill:#999;font-size:10px;}#mermaidSvgChart .relation{stroke:#666;stroke-width:1;fill:none;}#mermaidSvgChart .dashed-line{stroke-dasharray:3;}#mermaidSvgChart #compositionStart,#mermaidSvgChart .composition{fill:#666 !important;stroke:#666 !important;stroke-width:1;}#mermaidSvgChart #compositionEnd,#mermaidSvgChart .composition{fill:#666 !important;stroke:#666 !important;stroke-width:1;}#mermaidSvgChart #dependencyStart,#mermaidSvgChart .dependency{fill:#666 !important;stroke:#666 !important;stroke-width:1;}#mermaidSvgChart #dependencyStart,#mermaidSvgChart .dependency{fill:#666 !important;stroke:#666 !important;stroke-width:1;}#mermaidSvgChart #extensionStart,#mermaidSvgChart .extension{fill:#666 !important;stroke:#666 !important;stroke-width:1;}#mermaidSvgChart #extensionEnd,#mermaidSvgChart .extension{fill:#666 !important;stroke:#666 !important;stroke-width:1;}#mermaidSvgChart #aggregationStart,#mermaidSvgChart .aggregation{fill:#eee !important;stroke:#666 !important;stroke-width:1;}#mermaidSvgChart #aggregationEnd,#mermaidSvgChart .aggregation{fill:#eee !important;stroke:#666 !important;stroke-width:1;}#mermaidSvgChart .edgeTerminals{font-size:11px;}#mermaidSvgChart:root{--mermaid-font-family:"trebuchet ms",verdana,arial,sans-serif;}#mermaidSvgChart class{fill:apa;}</style><g></g><defs><marker id="extensionStart" class="extension" refX="0" refY="7" markerWidth="190" markerHeight="240" orient="auto"><path d="M 1,7 L18,13 V 1 Z"></path></marker></defs><defs><marker id="extensionEnd" refX="19" refY="7" markerWidth="20" markerHeight="28" orient="auto"><path d="M 1,1 V 13 L18,7 Z"></path></marker></defs><defs><marker id="compositionStart" class="extension" refX="0" refY="7" markerWidth="190" markerHeight="240" orient="auto"><path d="M 18,7 L9,13 L1,7 L9,1 Z"></path></marker></defs><defs><marker id="compositionEnd" refX="19" refY="7" markerWidth="20" markerHeight="28" orient="auto"><path d="M 18,7 L9,13 L1,7 L9,1 Z"></path></marker></defs><defs><marker id="aggregationStart" class="extension" refX="0" refY="7" markerWidth="190" markerHeight="240" orient="auto"><path d="M 18,7 L9,13 L1,7 L9,1 Z"></path></marker></defs><defs><marker id="aggregationEnd" refX="19" refY="7" markerWidth="20" markerHeight="28" orient="auto"><path d="M 18,7 L9,13 L1,7 L9,1 Z"></path></marker></defs><defs><marker id="dependencyStart" class="extension" refX="0" refY="7" markerWidth="190" markerHeight="240" orient="auto"><path d="M 5,7 L9,13 L1,7 L9,1 Z"></path></marker></defs><defs><marker id="dependencyEnd" refX="19" refY="7" markerWidth="20" markerHeight="28" orient="auto"><path d="M 18,7 L9,13 L14,7 L9,1 Z"></path></marker></defs><g id="classid-FeatureFlag-0" class="classGroup" transform="translate(0,30 )"><rect x="0" y="0" width="77.984375" height="71" class=" "></rect><text y="15" x="0"><tspan class="title" x="10.765625">FeatureFlag</tspan></text><line x1="0" y1="21" y2="21" x2="77.984375"></line><text x="5" y="31" fill="white" class="classText"><tspan x="5">FeatureFlagID</tspan><tspan x="5" dy="10">IsActive</tspan><tspan x="5" dy="10">DateCreated</tspan><tspan x="5" dy="10">DateModified</tspan></text><line x1="0" y1="67" y2="67" x2="77.984375"></line><text x="5" y="82" fill="white" class="classText"></text></g><g id="classid-__MigrationLog-1" class="classGroup" transform="translate(127.984375,0 )"><rect x="0" y="0" width="90.90625" height="131" class=" "></rect><text y="15" x="0"><tspan class="title" x="8.8671875">__MigrationLog</tspan></text><line x1="0" y1="21" y2="21" x2="90.90625"></line><text x="5" y="31" fill="white" class="classText"><tspan x="5">migration_id</tspan><tspan x="5" dy="10">script_checksum</tspan><tspan x="5" dy="10">script_filename</tspan><tspan x="5" dy="10">complete_dt</tspan><tspan x="5" dy="10">applied_by</tspan><tspan x="5" dy="10">deployed</tspan><tspan x="5" dy="10">version</tspan><tspan x="5" dy="10">package_version</tspan><tspan x="5" dy="10">release_version</tspan><tspan x="5" dy="10">sequence_no</tspan></text><line x1="0" y1="127" y2="127" x2="90.90625"></line><text x="5" y="142" fill="white" class="classText"></text></g><g id="classid-RecipeHistory_Aligned-2" class="classGroup" transform="translate(1147.6875,206 )"><rect x="0" y="0" width="115.6875" height="81" class=" "></rect><text y="15" x="0"><tspan class="title" x="5">RecipeHistory_Aligned</tspan></text><line x1="0" y1="21" y2="21" x2="115.6875"></line><text x="5" y="31" fill="white" class="classText"><tspan x="5">RecipeHistoryID</tspan><tspan x="5" dy="10">RecipeID</tspan><tspan x="5" dy="10">RecipeHistoryStatusID</tspan><tspan x="5" dy="10">DateCreated</tspan><tspan x="5" dy="10">DateModified</tspan></text><line x1="0" y1="77" y2="77" x2="115.6875"></line><text x="5" y="92" fill="white" class="classText"></text></g><g id="classid-__SchemaSnapshot-3" class="classGroup" transform="translate(268.890625,40 )"><rect x="0" y="0" width="101.609375" height="51" class=" "></rect><text y="15" x="0"><tspan class="title" x="5">__SchemaSnapshot</tspan></text><line x1="0" y1="21" y2="21" x2="101.609375"></line><text x="5" y="31" fill="white" class="classText"><tspan x="5">Snapshot</tspan><tspan x="5" dy="10">LastUpdateDate</tspan></text><line x1="0" y1="47" y2="47" x2="101.609375"></line><text x="5" y="62" fill="white" class="classText"></text></g><g id="classid-RecipeHistory-4" class="classGroup" transform="translate(1313.375,206 )"><rect x="0" y="0" width="113.578125" height="81" class=" "></rect><text y="15" x="0"><tspan class="title" x="24.0078125">RecipeHistory</tspan></text><line x1="0" y1="21" y2="21" x2="113.578125"></line><text x="5" y="31" fill="white" class="classText"><tspan x="5">RecipeHistoryID</tspan><tspan x="5" dy="10">RecipeID</tspan><tspan x="5" dy="10">RecipeHistoryStatusID</tspan><tspan x="5" dy="10">DateCreated</tspan><tspan x="5" dy="10">DateModified</tspan></text><line x1="0" y1="77" y2="77" x2="113.578125"></line><text x="5" y="92" fill="white" class="classText"></text></g><g id="classid-RecipeHistoryArchive_Aligned-5" class="classGroup" transform="translate(420.5,25 )"><rect x="0" y="0" width="151.34375" height="81" class=" "></rect><text y="15" x="0"><tspan class="title" x="5">RecipeHistoryArchive_Aligned</tspan></text><line x1="0" y1="21" y2="21" x2="151.34375"></line><text x="5" y="31" fill="white" class="classText"><tspan x="5">RecipeHistoryID</tspan><tspan x="5" dy="10">RecipeID</tspan><tspan x="5" dy="10">RecipeHistoryStatusID</tspan><tspan x="5" dy="10">DateCreated</tspan><tspan x="5" dy="10">DateModified</tspan></text><line x1="0" y1="77" y2="77" x2="151.34375"></line><text x="5" y="92" fill="white" class="classText"></text></g><g id="classid-RecipeHistoryArchive_NonAligned-6" class="classGroup" transform="translate(621.84375,25 )"><rect x="0" y="0" width="169.578125" height="81" class=" "></rect><text y="15" x="0"><tspan class="title" x="5">RecipeHistoryArchive_NonAligned</tspan></text><line x1="0" y1="21" y2="21" x2="169.578125"></line><text x="5" y="31" fill="white" class="classText"><tspan x="5">RecipeHistoryID</tspan><tspan x="5" dy="10">RecipeID</tspan><tspan x="5" dy="10">RecipeHistoryStatusID</tspan><tspan x="5" dy="10">DateCreated</tspan><tspan x="5" dy="10">DateModified</tspan></text><line x1="0" y1="77" y2="77" x2="169.578125"></line><text x="5" y="92" fill="white" class="classText"></text></g><g id="classid-RecipeIsActive-7" class="classGroup" transform="translate(1586.71875,5 )"><rect x="0" y="0" width="97.46875" height="121" class=" "></rect><text y="15" x="0"><tspan class="title" x="14.5859375">RecipeIsActive</tspan></text><line x1="0" y1="21" y2="21" x2="97.46875"></line><text x="5" y="31" fill="white" class="classText"><tspan x="5">RecipeID</tspan><tspan x="5" dy="10">RecipeName</tspan><tspan x="5" dy="10">RecipeDescription</tspan><tspan x="5" dy="10">ServingQuantity</tspan><tspan x="5" dy="10">MealTypeID</tspan><tspan x="5" dy="10">PreparationTypeID</tspan><tspan x="5" dy="10">IsActive</tspan><tspan x="5" dy="10">DateCreated</tspan><tspan x="5" dy="10">DateModified</tspan></text><line x1="0" y1="117" y2="117" x2="97.46875"></line><text x="5" y="132" fill="white" class="classText"></text></g><g id="classid-RecipeHistory2019-8" class="classGroup" transform="translate(1824.15625,206 )"><rect x="0" y="0" width="113.578125" height="81" class=" "></rect><text y="15" x="0"><tspan class="title" x="12.5546875">RecipeHistory2019</tspan></text><line x1="0" y1="21" y2="21" x2="113.578125"></line><text x="5" y="31" fill="white" class="classText"><tspan x="5">RecipeHistoryID</tspan><tspan x="5" dy="10">RecipeID</tspan><tspan x="5" dy="10">RecipeHistoryStatusID</tspan><tspan x="5" dy="10">DateCreated</tspan><tspan x="5" dy="10">DateModified</tspan></text><line x1="0" y1="77" y2="77" x2="113.578125"></line><text x="5" y="92" fill="white" class="classText"></text></g><g id="classid-abc-9" class="classGroup" transform="translate(1209.18359375,40 )"><rect x="0" y="0" width="27.15625" height="51" class=" "></rect><text y="15" x="0"><tspan class="title" x="5">abc</tspan></text><line x1="0" y1="21" y2="21" x2="27.15625"></line><text x="5" y="31" fill="white" class="classText"><tspan x="5">a</tspan><tspan x="5" dy="10">b</tspan></text><line x1="0" y1="47" y2="47" x2="27.15625"></line><text x="5" y="62" fill="white" class="classText"></text></g><g id="classid-RecipeHistory2018-10" class="classGroup" transform="translate(1987.734375,206 )"><rect x="0" y="0" width="113.578125" height="81" class=" "></rect><text y="15" x="0"><tspan class="title" x="12.5546875">RecipeHistory2018</tspan></text><line x1="0" y1="21" y2="21" x2="113.578125"></line><text x="5" y="31" fill="white" class="classText"><tspan x="5">RecipeHistoryID</tspan><tspan x="5" dy="10">RecipeID</tspan><tspan x="5" dy="10">RecipeHistoryStatusID</tspan><tspan x="5" dy="10">DateCreated</tspan><tspan x="5" dy="10">DateModified</tspan></text><line x1="0" y1="77" y2="77" x2="113.578125"></line><text x="5" y="92" fill="white" class="classText"></text></g><g id="classid-Recipe-11" class="classGroup" transform="translate(1008.75,362 )"><rect x="0" y="0" width="97.46875" height="121" class=" "></rect><text y="15" x="0"><tspan class="title" x="32.84375">Recipe</tspan></text><line x1="0" y1="21" y2="21" x2="97.46875"></line><text x="5" y="31" fill="white" class="classText"><tspan x="5">RecipeID</tspan><tspan x="5" dy="10">RecipeName</tspan><tspan x="5" dy="10">RecipeDescription</tspan><tspan x="5" dy="10">ServingQuantity</tspan><tspan x="5" dy="10">MealTypeID</tspan><tspan x="5" dy="10">PreparationTypeID</tspan><tspan x="5" dy="10">IsActive</tspan><tspan x="5" dy="10">DateCreated</tspan><tspan x="5" dy="10">DateModified</tspan></text><line x1="0" y1="117" y2="117" x2="97.46875"></line><text x="5" y="132" fill="white" class="classText"></text></g><g id="classid-Ingredient-12" class="classGroup" transform="translate(671.8046875,382 )"><rect x="0" y="0" width="86.859375" height="81" class=" "></rect><text y="15" x="0"><tspan class="title" x="18.84375">Ingredient</tspan></text><line x1="0" y1="21" y2="21" x2="86.859375"></line><text x="5" y="31" fill="white" class="classText"><tspan x="5">IngredientID</tspan><tspan x="5" dy="10">IngredientName</tspan><tspan x="5" dy="10">IsActive</tspan><tspan x="5" dy="10">DateCreated</tspan><tspan x="5" dy="10">DateModified</tspan></text><line x1="0" y1="77" y2="77" x2="86.859375"></line><text x="5" y="92" fill="white" class="classText"></text></g><g id="classid-RecipeIngredient-13" class="classGroup" transform="translate(997.28125,196 )"><rect x="0" y="0" width="100.40625" height="101" class=" "></rect><text y="15" x="0"><tspan class="title" x="9.8515625">RecipeIngredient</tspan></text><line x1="0" y1="21" y2="21" x2="100.40625"></line><text x="5" y="31" fill="white" class="classText"><tspan x="5">RecipeIngredientID</tspan><tspan x="5" dy="10">RecipeID</tspan><tspan x="5" dy="10">IngredientID</tspan><tspan x="5" dy="10">ServingPortionID</tspan><tspan x="5" dy="10">IsActive</tspan><tspan x="5" dy="10">DateCreated</tspan><tspan x="5" dy="10">DateModified</tspan></text><line x1="0" y1="97" y2="97" x2="100.40625"></line><text x="5" y="112" fill="white" class="classText"></text></g><g id="classid-MealType-14" class="classGroup" transform="translate(1476.953125,201 )"><rect x="0" y="0" width="108.453125" height="91" class=" "></rect><text y="15" x="0"><tspan class="title" x="31.71875">MealType</tspan></text><line x1="0" y1="21" y2="21" x2="108.453125"></line><text x="5" y="31" fill="white" class="classText"><tspan x="5">MealTypeID</tspan><tspan x="5" dy="10">MealTypeName</tspan><tspan x="5" dy="10">MealTypeDescription</tspan><tspan x="5" dy="10">IsActive</tspan><tspan x="5" dy="10">DateCreated</tspan><tspan x="5" dy="10">DateModified</tspan></text><line x1="0" y1="87" y2="87" x2="108.453125"></line><text x="5" y="102" fill="white" class="classText"></text></g><g id="classid-PreparationType-15" class="classGroup" transform="translate(1635.40625,201 )"><rect x="0" y="0" width="138.75" height="91" class=" "></rect><text y="15" x="0"><tspan class="title" x="30.6875">PreparationType</tspan></text><line x1="0" y1="21" y2="21" x2="138.75"></line><text x="5" y="31" fill="white" class="classText"><tspan x="5">PreparationTypeID</tspan><tspan x="5" dy="10">PreparationTypeName</tspan><tspan x="5" dy="10">PreparationTypeDescription</tspan><tspan x="5" dy="10">IsActive</tspan><tspan x="5" dy="10">DateCreated</tspan><tspan x="5" dy="10">DateModified</tspan></text><line x1="0" y1="87" y2="87" x2="138.75"></line><text x="5" y="102" fill="white" class="classText"></text></g><g id="classid-ServingPortion-16" class="classGroup" transform="translate(826.15625,377 )"><rect x="0" y="0" width="119.125" height="91" class=" "></rect><text y="15" x="0"><tspan class="title" x="25.2734375">ServingPortion</tspan></text><line x1="0" y1="21" y2="21" x2="119.125"></line><text x="5" y="31" fill="white" class="classText"><tspan x="5">ServingPortionID</tspan><tspan x="5" dy="10">ServingPortionQuantity</tspan><tspan x="5" dy="10">ServingPortionUnit</tspan><tspan x="5" dy="10">IsActive</tspan><tspan x="5" dy="10">DateCreated</tspan><tspan x="5" dy="10">DateModified</tspan></text><line x1="0" y1="87" y2="87" x2="119.125"></line><text x="5" y="102" fill="white" class="classText"></text></g><g id="classid-IngredientNutrition-17" class="classGroup" transform="translate(696.3125,181 )"><rect x="0" y="0" width="110.90625" height="131" class=" "></rect><text y="15" x="0"><tspan class="title" x="10.1796875">IngredientNutrition</tspan></text><line x1="0" y1="21" y2="21" x2="110.90625"></line><text x="5" y="31" fill="white" class="classText"><tspan x="5">IngredientNutritionID</tspan><tspan x="5" dy="10">ServingPortionID</tspan><tspan x="5" dy="10">Calories</tspan><tspan x="5" dy="10">Carbohydrates</tspan><tspan x="5" dy="10">Sugar</tspan><tspan x="5" dy="10">Fiber</tspan><tspan x="5" dy="10">Protein</tspan><tspan x="5" dy="10">IsActive</tspan><tspan x="5" dy="10">DataCreated</tspan><tspan x="5" dy="10">DateModified</tspan></text><line x1="0" y1="127" y2="127" x2="110.90625"></line><text x="5" y="142" fill="white" class="classText"></text></g><g id="classid-IngredientCost-18" class="classGroup" transform="translate(857.21875,196 )"><rect x="0" y="0" width="90.0625" height="101" class=" "></rect><text y="15" x="0"><tspan class="title" x="10.421875">IngredientCost</tspan></text><line x1="0" y1="21" y2="21" x2="90.0625"></line><text x="5" y="31" fill="white" class="classText"><tspan x="5">IngredientCostID</tspan><tspan x="5" dy="10">IngredientID</tspan><tspan x="5" dy="10">ServingPortionID</tspan><tspan x="5" dy="10">Cost</tspan><tspan x="5" dy="10">IsActive</tspan><tspan x="5" dy="10">DateCreated</tspan><tspan x="5" dy="10">DateModified</tspan></text><line x1="0" y1="97" y2="97" x2="90.0625"></line><text x="5" y="112" fill="white" class="classText"></text></g><g id="classid-IngredientCostHistory-19" class="classGroup" transform="translate(841.421875,30 )"><rect x="0" y="0" width="121.65625" height="71" class=" "></rect><text y="15" x="0"><tspan class="title" x="9.7265625">IngredientCostHistory</tspan></text><line x1="0" y1="21" y2="21" x2="121.65625"></line><text x="5" y="31" fill="white" class="classText"><tspan x="5">IngredientCostHistoryID</tspan><tspan x="5" dy="10">IngredientCostID</tspan><tspan x="5" dy="10">Cost</tspan><tspan x="5" dy="10">DateCreated</tspan></text><line x1="0" y1="67" y2="67" x2="121.65625"></line><text x="5" y="82" fill="white" class="classText"></text></g><g id="classid-RecipeHistoryStatus-20" class="classGroup" transform="translate(2158.3515625,382 )"><rect x="0" y="0" width="129.734375" height="81" class=" "></rect><text y="15" x="0"><tspan class="title" x="17.78125">RecipeHistoryStatus</tspan></text><line x1="0" y1="21" y2="21" x2="129.734375"></line><text x="5" y="31" fill="white" class="classText"><tspan x="5">RecipeHistoryStatusID</tspan><tspan x="5" dy="10">RecipeHistoryStatusName</tspan><tspan x="5" dy="10">IsActive</tspan><tspan x="5" dy="10">DateCreated</tspan><tspan x="5" dy="10">DateModified</tspan></text><line x1="0" y1="77" y2="77" x2="129.734375"></line><text x="5" y="92" fill="white" class="classText"></text></g><g id="classid-RecipeHistory_NoPartition-21" class="classGroup" transform="translate(2151.3125,206 )"><rect x="0" y="0" width="133.640625" height="81" class=" "></rect><text y="15" x="0"><tspan class="title" x="5">RecipeHistory_NoPartition</tspan></text><line x1="0" y1="21" y2="21" x2="133.640625"></line><text x="5" y="31" fill="white" class="classText"><tspan x="5">RecipeHistoryID</tspan><tspan x="5" dy="10">RecipeID</tspan><tspan x="5" dy="10">RecipeHistoryStatusID</tspan><tspan x="5" dy="10">DateCreated</tspan><tspan x="5" dy="10">DateModified</tspan></text><line x1="0" y1="77" y2="77" x2="133.640625"></line><text x="5" y="92" fill="white" class="classText"></text></g><g id="classid-Test-22" class="classGroup" transform="translate(1734.1875,45 )"><rect x="0" y="0" width="43.8125" height="41" class=" "></rect><text y="15" x="0"><tspan class="title" x="11.3671875">Test</tspan></text><line x1="0" y1="21" y2="21" x2="43.8125"></line><text x="5" y="31" fill="white" class="classText"><tspan x="5">TestID</tspan></text><line x1="0" y1="37" y2="37" x2="43.8125"></line><text x="5" y="52" fill="white" class="classText"></text></g><g id="classid-RecipeHistory_NonAligned-23" class="classGroup" transform="translate(2334.953125,206 )"><rect x="0" y="0" width="133.921875" height="81" class=" "></rect><text y="15" x="0"><tspan class="title" x="5">RecipeHistory_NonAligned</tspan></text><line x1="0" y1="21" y2="21" x2="133.921875"></line><text x="5" y="31" fill="white" class="classText"><tspan x="5">RecipeHistoryID</tspan><tspan x="5" dy="10">RecipeID</tspan><tspan x="5" dy="10">RecipeHistoryStatusID</tspan><tspan x="5" dy="10">DateCreated</tspan><tspan x="5" dy="10">DateModified</tspan></text><line x1="0" y1="77" y2="77" x2="133.921875"></line><text x="5" y="92" fill="white" class="classText"></text></g><path d="M1147.6875,266.5827813577102L1113.8841145833333,278.3189844647585C1080.0807291666667,290.0551875718068,1012.4739583333334,313.52759378590343,989.3177083333334,333.34719959846683C966.1614583333334,353.1668054110302,987.4557291666666,369.33361082206034,998.1028645833334,377.4170135275754L1008.75,385.5004162330905" id="edge0" class="relation" marker-end="url(#extensionEnd)"></path><g class="classLabel"><rect class="box" x="986.578125" y="303.4375" width="44.5" height="16.015625"></rect><text class="label" x="1008.3918312596252" y="314.94486817588796" fill="red" text-anchor="middle">RecipeID</text></g><path d="M1205.53125,287L1205.53125,295.3333333333333C1205.53125,303.6666666666667,1205.53125,320.3333333333333,1364.3346354166667,342.00837465966555C1523.1380208333333,363.68341598599767,1840.7447916666667,390.3668319719953,1999.5481770833333,403.70853996499415L2158.3515625,417.050247957993" id="edge1" class="relation" marker-end="url(#extensionEnd)"></path><g class="classLabel"><rect class="box" x="1605.671875" y="363.421875" width="103.59375" height="16.015625"></rect><text class="label" x="1657.029171322054" y="374.9321474156218" fill="red" text-anchor="middle">RecipeHistoryStatusID</text></g><path d="M1313.375,259.1806064227611L1255.2903645833333,272.15050535230097C1197.2057291666667,285.12040428184076,1081.0364583333333,311.06020214092035,1030.265625,330.7818724749309C979.4947916666666,350.50354280894135,994.1223958333334,364.00708561788275,1001.4361979166666,370.7588570223534L1008.75,377.51062842682416" id="edge2" class="relation" marker-end="url(#extensionEnd)"></path><g class="classLabel"><rect class="box" x="1088.15625" y="293.09375" width="44.5" height="16.015625"></rect><text class="label" x="1109.9774081594226" y="304.59788742590786" fill="red" text-anchor="middle">RecipeID</text></g><path d="M1370.1640625,287L1370.1640625,295.3333333333333C1370.1640625,303.6666666666667,1370.1640625,320.3333333333333,1501.5286458333333,341.83308148107443C1632.8932291666667,363.33282962881555,1895.6223958333333,389.66565925763115,2026.9869791666667,402.8320740720389L2158.3515625,415.9984888864467" id="edge3" class="relation" marker-end="url(#extensionEnd)"></path><g class="classLabel"><rect class="box" x="1688.015625" y="362.5" width="103.59375" height="16.015625"></rect><text class="label" x="1739.3824450221514" y="374.0060350974204" fill="red" text-anchor="middle">RecipeHistoryStatusID</text></g><path d="M1586.71875,107.7970705027347L1577.4622395833333,115.83089208561223C1568.2057291666667,123.8647136684898,1549.6927083333333,139.9323568342449,1540.4361979166667,155.46617841712245C1531.1796875,171,1531.1796875,186,1531.1796875,193.5L1531.1796875,201" id="edge4" class="relation" marker-end="url(#extensionEnd)"></path><g class="classLabel"><rect class="box" x="1513.3125" y="135.140625" width="57.15625" height="16.015625"></rect><text class="label" x="1541.9566784162819" y="146.64653759090356" fill="red" text-anchor="middle">MealTypeID</text></g><path d="M1681.7995511049724,126L1685.6298342541438,131C1689.4601174033148,136,1697.1206837016573,146,1700.9509668508288,158.5C1704.78125,171,1704.78125,186,1704.78125,193.5L1704.78125,201" id="edge5" class="relation" marker-end="url(#extensionEnd)"></path><g class="classLabel"><rect class="box" x="1661.484375" y="148.09375" width="87.46875" height="16.015625"></rect><text class="label" x="1704.78125" y="159.60450791788082" fill="red" text-anchor="middle">PreparationTypeID</text></g><path d="M1824.15625,252.23544874365726L1684.2747395833333,266.3628739530477C1544.3932291666667,280.49029916243813,1264.6302083333333,308.7451495812191,1128.7291666666667,327.55920738878064C992.828125,346.3732651963421,1000.7890625,355.74653039268424,1004.76953125,360.43316299085535L1008.75,365.11979558902635" id="edge6" class="relation" marker-end="url(#extensionEnd)"></path><g class="classLabel"><rect class="box" x="1364.34375" y="284.96875" width="44.5" height="16.015625"></rect><text class="label" x="1386.158460766817" y="296.47132374127875" fill="red" text-anchor="middle">RecipeID</text></g><path d="M1880.9453125,287L1880.9453125,295.3333333333333C1880.9453125,303.6666666666667,1880.9453125,320.3333333333333,1927.1796875,340.21602641650117C1973.4140625,360.098719499669,2065.8828125,383.1974389993381,2112.1171875,394.74679874917257L2158.3515625,406.2961584990071" id="edge7" class="relation" marker-end="url(#extensionEnd)"></path><g class="classLabel"><rect class="box" x="1944.03125" y="354.078125" width="103.59375" height="16.015625"></rect><text class="label" x="1995.393735616377" y="365.5892479647949" fill="red" text-anchor="middle">RecipeHistoryStatusID</text></g><path d="M1987.734375,251.553306550111L1827.6927083333333,265.79442212509247C1667.6510416666667,280.035537700074,1347.5677083333333,308.517768850037,1188.9880299707602,326.9255510916852C1030.408351608187,345.3333333333333,1033.3323282163742,353.6666666666667,1034.7943165204676,357.8333333333333L1036.2563048245613,362" id="edge8" class="relation" marker-end="url(#extensionEnd)"></path><g class="classLabel"><rect class="box" x="1472.59375" y="283.9375" width="44.5" height="16.015625"></rect><text class="label" x="1494.4143729106672" y="295.4507946951001" fill="red" text-anchor="middle">RecipeID</text></g><path d="M2044.5234375,287L2044.5234375,295.3333333333333C2044.5234375,303.6666666666667,2044.5234375,320.3333333333333,2063.4947916666665,337.7438537431324C2082.4661458333335,355.15437415293144,2120.4088541666665,373.3087483058628,2139.3802083333335,382.38593538232846L2158.3515625,391.4631224587942" id="edge9" class="relation" marker-end="url(#extensionEnd)"></path><g class="classLabel"><rect class="box" x="2027.515625" y="341.9375" width="103.59375" height="16.015625"></rect><text class="label" x="2078.8859634703463" y="353.4413712333086" fill="red" text-anchor="middle">RecipeHistoryStatusID</text></g><path d="M1047.484375,297L1047.484375,303.6666666666667C1047.484375,310.3333333333333,1047.484375,323.6666666666667,1047.9717044346978,334.5C1048.4590338693959,345.3333333333333,1049.4336927387915,353.6666666666667,1049.9210221734893,357.8333333333333L1050.408351608187,362" id="edge10" class="relation" marker-end="url(#extensionEnd)"></path><g class="classLabel"><rect class="box" x="1025.671875" y="318.078125" width="44.5" height="16.015625"></rect><text class="label" x="1047.484375" y="329.58520598962554" fill="red" text-anchor="middle">RecipeID</text></g><path d="M997.28125,259.3981768985096L946.9401041666666,272.3318140820913C896.5989583333334,285.26545126567305,795.9166666666666,311.1327256328365,747.3299067982456,331.56636281641823C698.7431469298245,352,702.2519188596492,367,704.0063048245614,374.5L705.7606907894736,382" id="edge11" class="relation" marker-end="url(#extensionEnd)"></path><g class="classLabel"><rect class="box" x="793.953125" y="292.4375" width="60.71875" height="16.015625"></rect><text class="label" x="823.8772784601707" y="303.9490908072521" fill="red" text-anchor="middle">IngredientID</text></g><path d="M751.765625,312L751.765625,316.1666666666667C751.765625,320.3333333333333,751.765625,328.6666666666667,764.1640625,340.74704498619695C776.5625,352.8274233057273,801.359375,368.65484661145456,813.7578125,376.5685582643182L826.15625,384.48226991718184" id="edge12" class="relation" marker-end="url(#extensionEnd)"></path><g class="classLabel"><rect class="box" x="739.265625" y="342.515625" width="79.1875" height="16.015625"></rect><text class="label" x="778.4243387235795" y="354.015803277199" fill="red" text-anchor="middle">ServingPortionID</text></g><path d="M857.21875,270.4044083951975L836.3098958333334,281.5036736626646C815.4010416666666,292.60293893013164,773.5833333333334,314.80146946506585,751.2243695175439,333.40073473253295C728.8654057017544,352,725.9651864035087,367,724.515076754386,374.5L723.0649671052631,382" id="edge13" class="relation" marker-end="url(#extensionEnd)"></path><g class="classLabel"><rect class="box" x="744.328125" y="302.9375" width="60.71875" height="16.015625"></rect><text class="label" x="774.2506514450347" y="314.4472300275281" fill="red" text-anchor="middle">IngredientID</text></g><path d="M902.25,297L902.25,303.6666666666667C902.25,310.3333333333333,902.25,323.6666666666667,900.9610136452242,337C899.6720272904482,350.3333333333333,897.0940545808967,363.6666666666667,895.8050682261209,370.3333333333333L894.516081871345,377" id="edge14" class="relation" marker-end="url(#extensionEnd)"></path><g class="classLabel"><rect class="box" x="863.015625" y="325.859375" width="79.1875" height="16.015625"></rect><text class="label" x="902.1796853246989" y="337.3636690956973" fill="red" text-anchor="middle">ServingPortionID</text></g><path d="M902.25,101L902.25,110.16666666666667C902.25,119.33333333333333,902.25,137.66666666666666,902.25,153.5C902.25,169.33333333333334,902.25,182.66666666666666,902.25,189.33333333333334L902.25,196" id="edge15" class="relation" marker-end="url(#extensionEnd)"></path><g class="classLabel"><rect class="box" x="862.640625" y="137" width="80.078125" height="16"></rect><text class="label" x="902.25" y="148.5" fill="red" text-anchor="middle">IngredientCostID</text></g><path d="M2151.3125,251.98938003517532L1978.8450520833333,266.1578166959794C1806.3776041666667,280.3262533567835,1461.4427083333333,308.6631266783918,1286.0988745735867,326.9982300058626C1110.7550408138402,345.3333333333333,1105.0022691276802,353.6666666666667,1102.1258832846004,357.8333333333333L1099.2494974415204,362" id="edge16" class="relation" marker-end="url(#extensionEnd)"></path><g class="classLabel"><rect class="box" x="1596.953125" y="284.234375" width="44.5" height="16.015625"></rect><text class="label" x="1618.7719345905025" y="295.73831562538027" fill="red" text-anchor="middle">RecipeID</text></g><path d="M2218.1328125,287L2218.1328125,295.3333333333333C2218.1328125,303.6666666666667,2218.1328125,320.3333333333333,2218.5789473684213,336.1666666666667C2219.025082236842,352,2219.917351973684,367,2220.3634868421054,374.5L2220.8096217105262,382" id="edge17" class="relation" marker-end="url(#extensionEnd)"></path><g class="classLabel"><rect class="box" x="2166.765625" y="323.03125" width="103.59375" height="16.015625"></rect><text class="label" x="2218.1328125" y="334.5397721125878" fill="red" text-anchor="middle">RecipeHistoryStatusID</text></g><path d="M2334.953125,251.2889480897933L2135.2122395833335,265.5741234081611C1935.4713541666667,279.85929872652883,1535.9895833333333,308.42964936326445,1331.2005208333333,328.17673768212654C1126.4114583333333,347.92382600098864,1116.3151041666667,358.8476520019772,1111.2669270833333,364.3095650024716L1106.21875,369.77147800296586" id="edge18" class="relation" marker-end="url(#extensionEnd)"></path><g class="classLabel"><rect class="box" x="1691.65625" y="284.234375" width="44.5" height="16.015625"></rect><text class="label" x="1713.4747778288474" y="295.73616843423946" fill="red" text-anchor="middle">RecipeID</text></g><path d="M2401.9140625,287L2401.9140625,295.3333333333333C2401.9140625,303.6666666666667,2401.9140625,320.3333333333333,2382.9427083333335,337.7438537431324C2363.9713541666665,355.15437415293144,2326.0286458333335,373.3087483058628,2307.0572916666665,382.38593538232846L2288.0859375,391.4631224587942" id="edge19" class="relation" marker-end="url(#extensionEnd)"></path><g class="classLabel"><rect class="box" x="2316.1875" y="341.9375" width="103.59375" height="16.015625"></rect><text class="label" x="2367.5515365296537" y="353.4413712333086" fill="red" text-anchor="middle">RecipeHistoryStatusID</text></g></svg>